# xmcd
#
# Track frame offsets:
#	150
#	21796
#	43967
#	63224
#	87899
#	108777
#	131057
#	144118
#	164394
#	187525
#	210893
#
# Disc length: 3121 seconds
#
# Revision: 1
# Processed by: cddbd v1.4PL0 Copyright (c) Steve Scherf et al.
# Submitted via: audiograbber 1.81.02
#
DISCID=820c2f0b
DTITLE=Neal Schon - Beyond The Thunder
DYEAR=1900
DGENRE=Metal
TTITLE0=Big Moon
TTITLE1=Bandalero
TTITLE2=Cool Breeze
TTITLE3=Zanzibar
TTITLE4=Send Me An Angel
TTITLE5=Boulevard Of Dreams
TTITLE6=Espanique
TTITLE7=Caribbean Blue
TTITLE8=Someone's Watching Over Me - Iguassa Falls
TTITLE9=Deep Forest
TTITLE10=Call Of The Wild
EXTD=
EXTT0=
EXTT1=
EXTT2=
EXTT3=
EXTT4=
EXTT5=
EXTT6=
EXTT7=
EXTT8=
EXTT9=
EXTT10=
PLAYORDER=
